<svg xmlns="http://www.w3.org/2000/svg" width="28.38" height="28.38" viewBox="0 0 28.38 28.38">
  <path id="Icon-Pinterest" d="M28.38,14.753A14.192,14.192,0,0,1,9.99,28.308a15.951,15.951,0,0,0,1.762-3.719c.172-.664.881-3.376.881-3.376a3.8,3.8,0,0,0,3.25,1.631c4.28,0,7.364-3.937,7.364-8.829,0-4.686-3.828-8.194-8.749-8.194-6.122,0-9.378,4.108-9.378,8.589,0,2.083,1.11,4.675,2.878,5.5.269.126.412.069.475-.189.046-.195.286-1.162.395-1.608a.425.425,0,0,0-.1-.406,5.588,5.588,0,0,1-1.047-3.239A6.141,6.141,0,0,1,14.133,8.31a5.6,5.6,0,0,1,5.928,5.773c0,3.839-1.94,6.5-4.463,6.5a2.058,2.058,0,0,1-2.1-2.563c.4-1.688,1.173-3.508,1.173-4.726a1.782,1.782,0,0,0-1.8-2c-1.425,0-2.569,1.471-2.569,3.445a5.113,5.113,0,0,0,.423,2.106s-1.4,5.939-1.659,7.049a13.736,13.736,0,0,0-.051,4.074A14.192,14.192,0,1,1,28.38,14.753Z" transform="translate(0 -0.563)" fill="#f8f8f8"/>
</svg>
