<svg xmlns="http://www.w3.org/2000/svg" width="25.648" height="25.643" viewBox="0 0 25.648 25.643">
  <path id="Icon-Instagram" d="M12.822,8.485A6.574,6.574,0,1,0,19.4,15.059,6.564,6.564,0,0,0,12.822,8.485Zm0,10.849A4.274,4.274,0,1,1,17.1,15.059,4.282,4.282,0,0,1,12.822,19.333ZM21.2,8.216a1.533,1.533,0,1,1-1.533-1.533A1.53,1.53,0,0,1,21.2,8.216Zm4.354,1.556A7.589,7.589,0,0,0,23.482,4.4a7.639,7.639,0,0,0-5.373-2.071c-2.117-.12-8.463-.12-10.58,0A7.628,7.628,0,0,0,2.156,4.393,7.614,7.614,0,0,0,.085,9.766c-.12,2.117-.12,8.463,0,10.58a7.589,7.589,0,0,0,2.071,5.373A7.648,7.648,0,0,0,7.529,27.79c2.117.12,8.463.12,10.58,0a7.589,7.589,0,0,0,5.373-2.071,7.639,7.639,0,0,0,2.071-5.373c.12-2.117.12-8.457,0-10.574ZM22.818,22.618a4.327,4.327,0,0,1-2.438,2.438c-1.688.669-5.693.515-7.559.515s-5.876.149-7.559-.515a4.327,4.327,0,0,1-2.438-2.438c-.669-1.688-.515-5.693-.515-7.559S2.162,9.183,2.826,7.5A4.327,4.327,0,0,1,5.263,5.063c1.688-.669,5.693-.515,7.559-.515S18.7,4.4,20.38,5.063A4.327,4.327,0,0,1,22.818,7.5c.669,1.688.515,5.693.515,7.559S23.487,20.935,22.818,22.618Z" transform="translate(0.005 -2.238)" fill="#f8f8f8"/>
</svg>
