<svg id="Stars-avis" xmlns="http://www.w3.org/2000/svg" width="218.674" height="31.781" viewBox="0 0 218.674 31.781">
  <path id="Icon_ionic-ios-star" data-name="Icon ionic-ios-star" d="M35.177,14.376H23.939L20.524,4.185a1.237,1.237,0,0,0-2.322,0L14.787,14.376H3.472A1.226,1.226,0,0,0,2.25,15.6a.9.9,0,0,0,.023.206,1.174,1.174,0,0,0,.512.863l9.236,6.509L8.476,33.483a1.226,1.226,0,0,0,.42,1.375,1.182,1.182,0,0,0,.688.3,1.5,1.5,0,0,0,.764-.275l9.015-6.425,9.015,6.425a1.432,1.432,0,0,0,.764.275,1.1,1.1,0,0,0,.68-.3,1.211,1.211,0,0,0,.42-1.375L26.7,23.177l9.16-6.57.222-.191a1.282,1.282,0,0,0,.4-.817A1.294,1.294,0,0,0,35.177,14.376Z" transform="translate(-2.25 -3.375)" fill="#dcb854"/>
  <path id="Icon_ionic-ios-star-2" data-name="Icon ionic-ios-star" d="M35.177,14.376H23.939L20.524,4.185a1.237,1.237,0,0,0-2.322,0L14.787,14.376H3.472A1.226,1.226,0,0,0,2.25,15.6a.9.9,0,0,0,.023.206,1.174,1.174,0,0,0,.512.863l9.236,6.509L8.476,33.483a1.226,1.226,0,0,0,.42,1.375,1.182,1.182,0,0,0,.688.3,1.5,1.5,0,0,0,.764-.275l9.015-6.425,9.015,6.425a1.432,1.432,0,0,0,.764.275,1.1,1.1,0,0,0,.68-.3,1.211,1.211,0,0,0,.42-1.375L26.7,23.177l9.16-6.57.222-.191a1.282,1.282,0,0,0,.4-.817A1.294,1.294,0,0,0,35.177,14.376Z" transform="translate(43.862 -3.375)" fill="#dcb854"/>
  <path id="Icon_ionic-ios-star-3" data-name="Icon ionic-ios-star" d="M35.177,14.376H23.939L20.524,4.185a1.237,1.237,0,0,0-2.322,0L14.787,14.376H3.472A1.226,1.226,0,0,0,2.25,15.6a.9.9,0,0,0,.023.206,1.174,1.174,0,0,0,.512.863l9.236,6.509L8.476,33.483a1.226,1.226,0,0,0,.42,1.375,1.182,1.182,0,0,0,.688.3,1.5,1.5,0,0,0,.764-.275l9.015-6.425,9.015,6.425a1.432,1.432,0,0,0,.764.275,1.1,1.1,0,0,0,.68-.3,1.211,1.211,0,0,0,.42-1.375L26.7,23.177l9.16-6.57.222-.191a1.282,1.282,0,0,0,.4-.817A1.294,1.294,0,0,0,35.177,14.376Z" transform="translate(89.974 -3.375)" fill="#dcb854"/>
  <path id="Icon_ionic-ios-star-4" data-name="Icon ionic-ios-star" d="M35.177,14.376H23.939L20.524,4.185a1.237,1.237,0,0,0-2.322,0L14.787,14.376H3.472A1.226,1.226,0,0,0,2.25,15.6a.9.9,0,0,0,.023.206,1.174,1.174,0,0,0,.512.863l9.236,6.509L8.476,33.483a1.226,1.226,0,0,0,.42,1.375,1.182,1.182,0,0,0,.688.3,1.5,1.5,0,0,0,.764-.275l9.015-6.425,9.015,6.425a1.432,1.432,0,0,0,.764.275,1.1,1.1,0,0,0,.68-.3,1.211,1.211,0,0,0,.42-1.375L26.7,23.177l9.16-6.57.222-.191a1.282,1.282,0,0,0,.4-.817A1.294,1.294,0,0,0,35.177,14.376Z" transform="translate(136.087 -3.375)" fill="#dcb854"/>
  <path id="Icon_ionic-ios-star-5" data-name="Icon ionic-ios-star" d="M35.177,14.376H23.939L20.524,4.185a1.237,1.237,0,0,0-2.322,0L14.787,14.376H3.472A1.226,1.226,0,0,0,2.25,15.6a.9.9,0,0,0,.023.206,1.174,1.174,0,0,0,.512.863l9.236,6.509L8.476,33.483a1.226,1.226,0,0,0,.42,1.375,1.182,1.182,0,0,0,.688.3,1.5,1.5,0,0,0,.764-.275l9.015-6.425,9.015,6.425a1.432,1.432,0,0,0,.764.275,1.1,1.1,0,0,0,.68-.3,1.211,1.211,0,0,0,.42-1.375L26.7,23.177l9.16-6.57.222-.191a1.282,1.282,0,0,0,.4-.817A1.294,1.294,0,0,0,35.177,14.376Z" transform="translate(182.199 -3.375)" fill="#dcb854"/>
</svg>
